ffmpeg started on 2016-11-28 at 13:51:08
Report written to "Output/x264/results/ffmpeg/old_town_cross_2160p50ultrafast500k.log"
Command line:
Tools/ffmpeg/ffmpeg -benchmark -y -i Input/y4m/old_town_cross_2160p50.y4m -c:v libx264 -preset ultrafast -b:v 500k -an Output/x264/encoded/old_town_cross_2160p50ultrafast500k.mkv
ffmpeg version N-82227-gdb23fde Copyright (c) 2000-2016 the FFmpeg developers
  built with gcc 5.4.0 (Ubuntu 5.4.0-6ubuntu1~16.04.2) 20160609
  configuration: --prefix=/home/jaroslav/ffmpeg_build --pkg-config-flags=--static --extra-cflags=-I/home/jaroslav/ffmpeg_build/include --extra-ldflags=-L/home/jaroslav/ffmpeg_build/lib --bindir=/home/jaroslav/bin --enable-gpl --enable-libass --enable-libfdk-aac --enable-libfreetype --enable-libmp3lame --enable-libopus --enable-libtheora --enable-libvorbis --enable-libvpx --enable-libx264 --enable-libx265 --enable-nvenc --enable-libmfx --enable-libxvid --enable-libgsm --enable-libopencore-amrnb --enable-version3 --enable-nonfree
  libavutil      55. 35.100 / 55. 35.100
  libavcodec     57. 66.101 / 57. 66.101
  libavformat    57. 57.100 / 57. 57.100
  libavdevice    57.  2.100 / 57.  2.100
  libavfilter     6. 66.100 /  6. 66.100
  libswscale      4.  3.100 /  4.  3.100
  libswresample   2.  4.100 /  2.  4.100
  libpostproc    54.  2.100 / 54.  2.100
Input #0, yuv4mpegpipe, from 'Input/y4m/old_town_cross_2160p50.y4m':
  Duration: 00:00:10.00, start: 0.000000, bitrate: 4976642 kb/s
    Stream #0:0: Video: rawvideo (I420 / 0x30323449), yuv420p(progressive), 3840x2160, SAR 1:1 DAR 16:9, 50 fps, 50 tbr, 50 tbn, 50 tbc
[libx264 @ 0x2c1c120] using SAR=1/1
[libx264 @ 0x2c1c120] using cpu capabilities: MMX2 SSE2Fast SSSE3 SSE4.2 AVX FMA3 AVX2 LZCNT BMI2
[libx264 @ 0x2c1c120] profile Constrained Baseline, level 5.2
[libx264 @ 0x2c1c120] 264 - core 148 - H.264/MPEG-4 AVC codec - Copyleft 2003-2016 - http://www.videolan.org/x264.html - options: cabac=0 ref=1 deblock=0:0:0 analyse=0:0 me=dia subme=0 psy=1 psy_rd=1.00:0.00 mixed_ref=0 me_range=16 chroma_me=1 trellis=0 8x8dct=0 cqm=0 deadzone=21,11 fast_pskip=1 chroma_qp_offset=0 threads=6 lookahead_threads=1 sliced_threads=0 nr=0 decimate=1 interlaced=0 bluray_compat=0 constrained_intra=0 bframes=0 weightp=0 keyint=250 keyint_min=25 scenecut=0 intra_refresh=0 rc=abr mbtree=0 bitrate=500 ratetol=1.0 qcomp=0.60 qpmin=0 qpmax=69 qpstep=4 ip_ratio=1.40 aq=0
Output #0, matroska, to 'Output/x264/encoded/old_town_cross_2160p50ultrafast500k.mkv':
  Metadata:
    encoder         : Lavf57.57.100
    Stream #0:0: Video: h264 (libx264) (H264 / 0x34363248), yuv420p, 3840x2160 [SAR 1:1 DAR 16:9], q=-1--1, 500 kb/s, 50 fps, 1k tbn, 50 tbc
    Metadata:
      encoder         : Lavc57.66.101 libx264
    Side data:
      cpb: bitrate max/min/avg: 0/0/500000 buffer size: 0 vbv_delay: -1
Stream mapping:
  Stream #0:0 -> #0:0 (rawvideo (native) -> h264 (libx264))
Press [q] to stop, [?] for help
frame=   21 fps=0.0 q=69.0 size=       1kB time=00:00:00.26 bitrate=  22.4kbits/s speed= 0.5x    frame=   41 fps= 39 q=69.0 size=       1kB time=00:00:00.66 bitrate=   8.9kbits/s speed=0.631x    frame=   48 fps= 30 q=66.0 size=       1kB time=00:00:00.80 bitrate=   7.3kbits/s speed=0.508x    frame=   59 fps= 27 q=64.0 size=       1kB time=00:00:01.02 bitrate=   5.7kbits/s speed=0.47x    frame=   74 fps= 27 q=64.0 size=       1kB time=00:00:01.32 bitrate=   4.4kbits/s speed=0.479x    frame=   88 fps= 27 q=64.0 size=       1kB time=00:00:01.60 bitrate=   3.7kbits/s speed=0.488x    frame=  107 fps= 28 q=64.0 size=       1kB time=00:00:01.98 bitrate=   3.0kbits/s speed=0.524x    frame=  117 fps= 27 q=64.0 size=       1kB time=00:00:02.18 bitrate=   2.7kbits/s speed=0.498x    frame=  130 fps= 25 q=64.0 size=       1kB time=00:00:02.44 bitrate=   2.4kbits/s speed=0.471x    frame=  132 fps= 23 q=64.0 size=       1kB time=00:00:02.48 bitrate=   2.4kbits/s speed=0.429x    frame=  134 fps= 20 q=64.0 size=       1kB time=00:00:02.52 bitrate=   2.3kbits/s speed=0.385x    frame=  138 fps= 19 q=64.0 size=       1kB time=00:00:02.60 bitrate=   2.3kbits/s speed=0.354x    frame=  140 fps= 17 q=64.0 size=       1kB time=00:00:02.64 bitrate=   2.2kbits/s speed=0.327x    frame=  144 fps= 16 q=64.0 size=       1kB time=00:00:02.72 bitrate=   2.2kbits/s speed=0.307x    frame=  145 fps= 15 q=64.0 size=       1kB time=00:00:02.74 bitrate=   2.1kbits/s speed=0.286x    frame=  149 fps= 15 q=64.0 size=       1kB time=00:00:02.82 bitrate=   2.1kbits/s speed=0.28x    frame=  152 fps= 14 q=64.0 size=       1kB time=00:00:02.88 bitrate=   2.0kbits/s speed=0.265x    frame=  172 fps= 15 q=64.0 size=       1kB time=00:00:03.28 bitrate=   1.8kbits/s speed=0.288x    frame=  186 fps= 15 q=63.0 size=       1kB time=00:00:03.56 bitrate=   1.6kbits/s speed=0.295x    frame=  196 fps= 15 q=65.0 size=       1kB time=00:00:03.76 bitrate=   1.6kbits/s speed=0.296x    frame=  201 fps= 15 q=64.0 size=       1kB time=00:00:03.86 bitrate=   1.5kbits/s speed=0.292x    frame=  204 fps= 15 q=64.0 size=       1kB time=00:00:03.92 bitrate=   1.5kbits/s speed=0.281x    frame=  206 fps= 14 q=64.0 size=       1kB time=00:00:03.96 bitrate=   1.5kbits/s speed=0.269x    frame=  213 fps= 14 q=64.0 size=       1kB time=00:00:04.10 bitrate=   1.4kbits/s speed=0.263x    frame=  233 fps= 14 q=64.0 size=       1kB time=00:00:04.50 bitrate=   1.3kbits/s speed=0.28x    frame=  251 fps= 15 q=64.0 size=       1kB time=00:00:04.86 bitrate=   1.2kbits/s speed=0.287x    frame=  256 fps= 15 q=66.0 size=       1kB time=00:00:04.96 bitrate=   1.2kbits/s speed=0.282x    frame=  258 fps= 14 q=66.0 size=     311kB time=00:00:05.00 bitrate= 509.8kbits/s speed=0.276x    frame=  260 fps= 14 q=66.0 size=     311kB time=00:00:05.04 bitrate= 505.8kbits/s speed=0.264x    frame=  271 fps= 14 q=65.0 size=     311kB time=00:00:05.26 bitrate= 484.6kbits/s speed=0.266x    frame=  278 fps= 14 q=65.0 size=     311kB time=00:00:05.40 bitrate= 472.0kbits/s speed=0.263x    frame=  280 fps= 13 q=65.0 size=     311kB time=00:00:05.44 bitrate= 468.6kbits/s speed=0.258x    frame=  286 fps= 13 q=65.0 size=     311kB time=00:00:05.56 bitrate= 458.5kbits/s speed=0.258x    frame=  300 fps= 13 q=65.0 size=     311kB time=00:00:05.84 bitrate= 436.5kbits/s speed=0.262x    frame=  320 fps= 14 q=64.0 size=     311kB time=00:00:06.24 bitrate= 408.5kbits/s speed=0.274x    frame=  340 fps= 15 q=64.0 size=     311kB time=00:00:06.64 bitrate= 383.9kbits/s speed=0.285x    frame=  352 fps= 15 q=64.0 size=     311kB time=00:00:06.88 bitrate= 370.5kbits/s speed=0.288x    frame=  371 fps= 15 q=65.0 size=     311kB time=00:00:07.26 bitrate= 351.1kbits/s speed=0.298x    frame=  390 fps= 16 q=65.0 size=     311kB time=00:00:07.64 bitrate= 333.7kbits/s speed=0.307x    frame=  406 fps= 16 q=65.0 size=     311kB time=00:00:07.96 bitrate= 320.2kbits/s speed=0.313x    frame=  423 fps= 16 q=64.0 size=     311kB time=00:00:08.30 bitrate= 307.1kbits/s speed=0.32x    frame=  443 fps= 17 q=65.0 size=     311kB time=00:00:08.70 bitrate= 293.0kbits/s speed=0.329x    frame=  463 fps= 17 q=65.0 size=     311kB time=00:00:09.10 bitrate= 280.1kbits/s speed=0.338x    frame=  482 fps= 18 q=65.0 size=     311kB time=00:00:09.48 bitrate= 268.9kbits/s speed=0.345x    frame=  500 fps= 18 q=65.0 size=     311kB time=00:00:09.84 bitrate= 259.1kbits/s speed=0.352x    frame=  500 fps= 18 q=-1.0 Lsize=     625kB time=00:00:09.98 bitrate= 513.0kbits/s speed=0.356x    
video:621kB audio:0kB subtitle:0kB other streams:0kB global headers:0kB muxing overhead: 0.673958%
bench: utime=15.060s
bench: maxrss=366584kB
[libx264 @ 0x2c1c120] frame I:2     Avg QP:51.00  size: 29774
[libx264 @ 0x2c1c120] frame P:498   Avg QP:51.00  size:  1156
[libx264 @ 0x2c1c120] mb I  I16..4: 100.0%  0.0%  0.0%
[libx264 @ 0x2c1c120] mb P  I16..4:  0.7%  0.0%  0.0%  P16..4:  0.6%  0.0%  0.0%  0.0%  0.0%    skip:98.7%
[libx264 @ 0x2c1c120] final ratefactor: 58.68
[libx264 @ 0x2c1c120] coded y,uvDC,uvAC intra: 0.0% 5.6% 0.0% inter: 0.0% 0.0% 0.0%
[libx264 @ 0x2c1c120] i16 v,h,dc,p: 72% 22%  5%  1%
[libx264 @ 0x2c1c120] i8c dc,h,v,p: 100%  0%  0%  0%
[libx264 @ 0x2c1c120] kb/s:508.16
